# xmcd CD database file
#
# Track frame offsets:
#	187
#	19995
#	38880
#	61655
#	83032
#	104207
#	126802
#	148890
#	167577
#	199197
#	212922
#	232822
#	257492
#	283042
#	305125
#
# Disc length: 4322 seconds
#
# Revision: 1
# Processed by: cddbd v1.5.1PL0 Copyright (c) Steve Scherf et al.
# Submitted via: CDex 1.40Release
#
DISCID=dc10e00f
DTITLE=Various Artist - Groove Street Soft And Easy
DYEAR=1995
DGENRE=Jazz
TTITLE0=Soft And Easy - The Blackbyrds
TTITLE1=Space In The Place - Pleasure
TTITLE2=Always There - Side Effect
TTITLE3=I Been Down - The Two Tons
TTITLE4=Lovin' - Phill Hurtt
TTITLE5=Here Is My Love - Sylvester
TTITLE6=Happy Music - The Blackbyrds
TTITLE7=That's A Lady - Shock
TTITLE8=Keep That Same Old Feeling - Side Effect
TTITLE9=We've Got An Understanding - Arthur Adams
TTITLE10=Mr.Weather Man - Water and Power
TTITLE11=Don't You Want Me? - Fever
TTITLE12=There See Goes - Boppers
TTITLE13=Each And Every Day - Shock
TTITLE14=Walking In Rhythm
EXTD=YEAR: 1995 ID3G: 8
EXTT0=
EXTT1=
EXTT2=
EXTT3=
EXTT4=
EXTT5=
EXTT6=
EXTT7=
EXTT8=
EXTT9=
EXTT10=
EXTT11=
EXTT12=
EXTT13=
EXTT14=
PLAYORDER=
